<?xml version="1.0" encoding="UTF-8" standalone="no"?>
<!-- Created using Krita: https://krita.org -->

<svg
   width="768.109pt"
   height="768.109pt"
   viewBox="0 0 768.109 768.109"
   version="1.1"
   id="svg37"
   sodipodi:docname="EmuDiscer.svg"
   inkscape:version="1.1 (c4e8f9ed74, 2021-05-24)"
   xmlns:inkscape="http://www.inkscape.org/namespaces/inkscape"
   xmlns:sodipodi="http://sodipodi.sourceforge.net/DTD/sodipodi-0.dtd"
   xmlns="http://www.w3.org/2000/svg"
   xmlns:svg="http://www.w3.org/2000/svg">
  <sodipodi:namedview
     id="namedview39"
     pagecolor="#ffffff"
     bordercolor="#666666"
     borderopacity="1.0"
     inkscape:pageshadow="2"
     inkscape:pageopacity="0.0"
     inkscape:pagecheckerboard="0"
     inkscape:document-units="pt"
     showgrid="false"
     inkscape:zoom="0.64443978"
     inkscape:cx="512.07267"
     inkscape:cy="512.07267"
     inkscape:window-width="1856"
     inkscape:window-height="1044"
     inkscape:window-x="0"
     inkscape:window-y="289"
     inkscape:window-maximized="1"
     inkscape:current-layer="svg37" />
  <defs
     id="defs23">
    <linearGradient
       id="gradient0"
       gradientUnits="objectBoundingBox"
       x1="0.00455097025830936"
       y1="0.499999975499545"
       x2="0.499999975499545"
       y2="0.499999975499545"
       spreadMethod="pad">
      <stop
         stop-color="#00ffff"
         offset="0"
         stop-opacity="1"
         id="stop2" />
      <stop
         stop-color="#000000"
         offset="1"
         stop-opacity="0"
         id="stop4" />
    </linearGradient>
    <linearGradient
       id="gradient1"
       gradientUnits="objectBoundingBox"
       x1="0.499999975499544"
       y1="0.499999975499544"
       x2="1"
       y2="0.499999975499545"
       spreadMethod="pad">
      <stop
         stop-color="#000000"
         offset="0"
         stop-opacity="0"
         id="stop7" />
      <stop
         stop-color="#ff00ff"
         offset="1"
         stop-opacity="1"
         id="stop9" />
    </linearGradient>
    <linearGradient
       id="gradient2"
       gradientUnits="objectBoundingBox"
       x1="0.148665035003554"
       y1="0.157766975922139"
       x2="0.85436894530264"
       y2="0.848300984690251"
       spreadMethod="repeat">
      <stop
         stop-color="#ffffff"
         offset="0.0693069323897362"
         stop-opacity="0"
         id="stop12" />
      <stop
         stop-color="#ffffff"
         offset="0.336633652448654"
         stop-opacity="0.501960784313725"
         id="stop14" />
      <stop
         stop-color="#ffffff"
         offset="0.508250832557678"
         stop-opacity="1"
         id="stop16" />
      <stop
         stop-color="#ffffff"
         offset="0.676567673683167"
         stop-opacity="0.501960784313725"
         id="stop18" />
      <stop
         stop-color="#ffffff"
         offset="0.930693089962006"
         stop-opacity="0"
         id="stop20" />
    </linearGradient>
  </defs>
  <rect
     id="shape0"
     transform="matrix(1.00000002119067 0 0 1.00000002119067 15.0021272614672 177.025018593815)"
     fill="#a5a5a5"
     fill-rule="evenodd"
     stroke="#404040"
     stroke-width="30.0042400320852"
     stroke-linecap="square"
     stroke-linejoin="bevel"
     width="738.104304789296"
     height="288.040704308018"
     rx="57.6643988116638"
     ry="44.5710954441807" />
  <path
     id="shape01"
     transform="matrix(0.999999967593418 0 0 0.999999967593418 75.0105975691629 75.0105975691629)"
     fill="#0000ff"
     fill-rule="evenodd"
     stroke="#000000"
     stroke-opacity="0"
     stroke-width="0"
     stroke-linecap="square"
     stroke-linejoin="bevel"
     d="M618.087 309.043L617.983 300.941L617.672 292.889L617.157 284.892L616.441 276.951L615.525 269.069L614.414 261.249L613.108 253.492L611.611 245.803L609.925 238.182L608.053 230.634L605.997 223.16L603.76 215.762L601.344 208.444L598.752 201.208L595.987 194.056L593.051 186.992L589.946 180.017L586.675 173.134L583.241 166.345L579.647 159.654L575.893 153.063L571.985 146.574L567.923 140.19L563.71 133.913L559.349 127.746L554.843 121.692L550.194 115.752L545.404 109.93L540.476 104.229L535.413 98.6504L530.217 93.1964L524.891 87.8694L519.437 82.6744L513.858 77.6104L508.156 72.6834L502.334 67.8934L496.395 63.2444L490.341 58.7374L484.174 54.3774L477.897 50.1644L471.513 46.1024L465.024 42.1934L458.432 38.4404L451.741 34.8454L444.953 31.4114L438.07 28.1414L431.095 25.0364L424.03 22.0999L416.879 19.3346L409.643 16.7428L402.324 14.3271L394.927 12.0901L387.453 10.0342L379.904 8.1621L372.284 6.4762L364.594 4.9791L356.838 3.6734L349.018 2.5616L341.136 1.6462L333.195 0.9298L325.197 0.4149L317.146 0.1042L309.043 0L300.941 0.1042L292.889 0.4149L284.892 0.9298L276.951 1.6462L269.069 2.5616L261.249 3.6734L253.492 4.9791L245.803 6.4762L238.182 8.1621L230.634 10.0342L223.16 12.0901L215.762 14.3271L208.444 16.7428L201.208 19.3346L194.056 22.0999L186.992 25.0364L180.017 28.1414L173.134 31.4114L166.345 34.8454L159.654 38.4404L153.063 42.1934L146.574 46.1024L140.19 50.1644L133.913 54.3774L127.746 58.7374L121.692 63.2444L115.752 67.8934L109.93 72.6834L104.229 77.6104L98.6504 82.6744L93.1964 87.8694L87.8694 93.1964L82.6744 98.6504L77.6104 104.229L72.6834 109.93L67.8934 115.752L63.2444 121.692L58.7374 127.746L54.3774 133.913L50.1644 140.19L46.1024 146.574L42.1934 153.063L38.4404 159.654L34.8454 166.345L31.4114 173.134L28.1414 180.017L25.0364 186.992L22.0999 194.056L19.3346 201.208L16.7428 208.444L14.3271 215.762L12.0901 223.16L10.0342 230.634L8.1621 238.182L6.4762 245.803L4.9791 253.492L3.6734 261.249L2.5616 269.069L1.6462 276.951L0.9298 284.892L0.4149 292.889L0.1042 300.941L0 309.043L0.1042 317.146L0.4149 325.197L0.9298 333.195L1.6462 341.136L2.5616 349.018L3.6734 356.838L4.9791 364.594L6.4762 372.284L8.1621 379.904L10.0342 387.453L12.0901 394.927L14.3271 402.324L16.7428 409.643L19.3346 416.879L22.0999 424.03L25.0364 431.095L28.1414 438.07L31.4114 444.953L34.8454 451.741L38.4404 458.432L42.1934 465.024L46.1024 471.513L50.1644 477.897L54.3774 484.174L58.7374 490.341L63.2444 496.395L67.8934 502.334L72.6834 508.156L77.6104 513.858L82.6744 519.437L87.8694 524.891L93.1964 530.217L98.6504 535.413L104.229 540.476L109.93 545.404L115.752 550.194L121.692 554.843L127.746 559.349L133.913 563.71L140.19 567.923L146.574 571.985L153.063 575.893L159.654 579.647L166.345 583.241L173.134 586.675L180.017 589.946L186.992 593.051L194.056 595.987L201.208 598.752L208.444 601.344L215.762 603.76L223.16 605.997L230.634 608.053L238.182 609.925L245.803 611.611L253.492 613.108L261.249 614.414L269.069 615.525L276.951 616.441L284.892 617.157L292.889 617.672L300.941 617.983L309.043 618.087L317.146 617.983L325.197 617.672L333.195 617.157L341.136 616.441L349.018 615.525L356.838 614.414L364.594 613.108L372.284 611.611L379.904 609.925L387.453 608.053L394.927 605.997L402.324 603.76L409.643 601.344L416.879 598.752L424.03 595.987L431.095 593.051L438.07 589.946L444.953 586.675L451.741 583.241L458.432 579.647L465.024 575.893L471.513 571.985L477.897 567.923L484.174 563.71L490.341 559.349L496.395 554.843L502.334 550.194L508.156 545.404L513.858 540.476L519.437 535.413L524.891 530.217L530.217 524.891L535.413 519.437L540.476 513.858L545.404 508.156L550.194 502.334L554.843 496.395L559.349 490.341L563.71 484.174L567.923 477.897L571.985 471.513L575.893 465.024L579.647 458.432L583.241 451.741L586.675 444.953L589.946 438.07L593.051 431.095L595.987 424.03L598.752 416.879L601.344 409.643L603.76 402.324L605.997 394.927L608.053 387.453L609.925 379.904L611.611 372.284L613.108 364.594L614.414 356.838L615.525 349.018L616.441 341.136L617.157 333.195L617.672 325.197L617.983 317.146L618.087 309.043M391.93 309.043L391.902 306.919L391.819 304.809L391.681 302.712L391.488 300.631L391.243 298.565L390.945 296.515L390.595 294.481L390.193 292.466L389.741 290.468L389.239 288.489L388.687 286.53L388.087 284.591L387.44 282.673L386.744 280.776L386.003 278.901L385.215 277.049L384.382 275.221L383.505 273.416L382.584 271.637L381.62 269.883L380.614 268.155L379.565 266.454L378.476 264.781L377.346 263.135L376.176 261.519L374.968 259.932L373.721 258.375L372.436 256.849L371.114 255.354L369.757 253.892L368.363 252.462L366.934 251.066L365.472 249.704L363.975 248.376L362.446 247.085L360.885 245.829L359.292 244.61L357.668 243.429L356.014 242.286L354.33 241.182L352.618 240.117L350.878 239.092L349.11 238.108L347.315 237.166L345.495 236.266L343.649 235.409L341.778 234.595L339.883 233.825L337.965 233.1L336.024 232.421L334.062 231.787L332.078 231.201L330.073 230.662L328.048 230.171L326.005 229.729L323.942 229.337L321.862 228.995L319.765 228.703L317.651 228.463L315.521 228.276L313.376 228.141L311.216 228.059L309.043 228.032L306.87 228.059L304.711 228.141L302.566 228.276L300.436 228.463L298.322 228.703L296.225 228.995L294.144 229.337L292.082 229.729L290.038 230.171L288.014 230.662L286.009 231.201L284.025 231.787L282.062 232.421L280.121 233.1L278.203 233.825L276.309 234.595L274.438 235.409L272.592 236.266L270.771 237.166L268.977 238.108L267.209 239.092L265.468 240.117L263.756 241.182L262.073 242.286L260.419 243.429L258.795 244.61L257.202 245.829L255.64 247.085L254.111 248.376L252.615 249.704L251.152 251.066L249.724 252.462L248.33 253.892L246.972 255.354L245.65 256.849L244.366 258.375L243.119 259.932L241.91 261.519L240.741 263.135L239.611 264.781L238.521 266.454L237.473 268.155L236.466 269.883L235.502 271.637L234.581 273.416L233.704 275.221L232.871 277.049L232.084 278.901L231.342 280.776L230.647 282.673L229.999 284.591L229.399 286.53L228.848 288.489L228.346 290.468L227.894 292.466L227.492 294.481L227.142 296.515L226.844 298.565L226.598 300.631L226.406 302.712L226.268 304.809L226.185 306.919L226.157 309.043L226.185 311.167L226.268 313.278L226.406 315.374L226.598 317.456L226.844 319.522L227.142 321.572L227.492 323.605L227.894 325.621L228.346 327.618L228.848 329.597L229.399 331.556L229.999 333.496L230.647 335.414L231.342 337.311L232.084 339.185L232.871 341.037L233.704 342.866L234.581 344.67L235.502 346.45L236.466 348.203L237.473 349.931L238.521 351.632L239.611 353.306L240.741 354.951L241.91 356.568L243.119 358.155L244.366 359.712L245.65 361.238L246.972 362.733L248.33 364.195L249.724 365.625L251.152 367.021L252.615 368.383L254.111 369.71L255.64 371.002L257.202 372.257L258.795 373.476L260.419 374.657L262.073 375.801L263.756 376.905L265.468 377.97L267.209 378.994L268.977 379.978L270.771 380.92L272.592 381.821L274.438 382.678L276.309 383.492L278.203 384.262L280.121 384.986L282.062 385.666L284.025 386.299L286.009 386.885L288.014 387.424L290.038 387.915L292.082 388.357L294.144 388.75L296.225 389.092L298.322 389.383L300.436 389.623L302.566 389.811L304.711 389.946L306.87 390.027L309.043 390.055L311.216 390.027L313.376 389.946L315.521 389.811L317.651 389.623L319.765 389.383L321.862 389.092L323.942 388.75L326.005 388.357L328.048 387.915L330.073 387.424L332.078 386.885L334.062 386.299L336.024 385.666L337.965 384.986L339.883 384.262L341.778 383.492L343.649 382.678L345.495 381.821L347.315 380.92L349.11 379.978L350.878 378.994L352.618 377.97L354.33 376.905L356.014 375.801L357.668 374.657L359.292 373.476L360.885 372.257L362.446 371.002L363.975 369.71L365.472 368.383L366.934 367.021L368.363 365.625L369.757 364.195L371.114 362.733L372.436 361.238L373.721 359.712L374.968 358.155L376.176 356.568L377.346 354.951L378.476 353.306L379.565 351.632L380.614 349.931L381.62 348.203L382.584 346.45L383.505 344.67L384.382 342.866L385.215 341.037L386.003 339.185L386.744 337.311L387.44 335.414L388.087 333.496L388.687 331.556L389.239 329.597L389.741 327.618L390.193 325.621L390.595 323.605L390.945 321.572L391.243 319.522L391.488 317.456L391.681 315.374L391.819 313.278L391.902 311.167L391.93 309.043" />
  <path
     id="shape02"
     transform="matrix(0.999999935186837 0 0 0.999999935186837 75.0107924407773 75.0107924407773)"
     fill="url(#gradient0)"
     fill-rule="evenodd"
     stroke="#000000"
     stroke-opacity="0"
     stroke-width="0"
     stroke-linecap="square"
     stroke-linejoin="bevel"
     d="M618.087 309.043L617.983 300.941L617.672 292.889L617.157 284.892L616.441 276.951L615.525 269.069L614.414 261.249L613.108 253.492L611.611 245.803L609.925 238.182L608.053 230.634L605.997 223.16L603.76 215.762L601.344 208.444L598.752 201.208L595.987 194.056L593.051 186.992L589.946 180.017L586.675 173.134L583.241 166.345L579.647 159.654L575.893 153.063L571.985 146.574L567.923 140.19L563.71 133.913L559.349 127.746L554.843 121.692L550.194 115.752L545.404 109.93L540.476 104.229L535.413 98.6504L530.217 93.1964L524.891 87.8694L519.437 82.6744L513.858 77.6104L508.156 72.6834L502.334 67.8934L496.395 63.2444L490.341 58.7374L484.174 54.3774L477.897 50.1644L471.513 46.1024L465.024 42.1934L458.432 38.4404L451.741 34.8454L444.953 31.4114L438.07 28.1414L431.095 25.0364L424.03 22.0999L416.879 19.3346L409.643 16.7428L402.324 14.3271L394.927 12.0901L387.453 10.0342L379.904 8.1621L372.284 6.4762L364.594 4.9791L356.838 3.6734L349.018 2.5616L341.136 1.6462L333.195 0.9298L325.197 0.4149L317.146 0.1042L309.043 0L300.941 0.1042L292.889 0.4149L284.892 0.9298L276.951 1.6462L269.069 2.5616L261.249 3.6734L253.492 4.9791L245.803 6.4762L238.182 8.1621L230.634 10.0342L223.16 12.0901L215.762 14.3271L208.444 16.7428L201.208 19.3346L194.056 22.0999L186.992 25.0364L180.017 28.1414L173.134 31.4114L166.345 34.8454L159.654 38.4404L153.063 42.1934L146.574 46.1024L140.19 50.1644L133.913 54.3774L127.746 58.7374L121.692 63.2444L115.752 67.8934L109.93 72.6834L104.229 77.6104L98.6504 82.6744L93.1964 87.8694L87.8694 93.1964L82.6744 98.6504L77.6104 104.229L72.6834 109.93L67.8934 115.752L63.2444 121.692L58.7374 127.746L54.3774 133.913L50.1644 140.19L46.1024 146.574L42.1934 153.063L38.4404 159.654L34.8454 166.345L31.4114 173.134L28.1414 180.017L25.0364 186.992L22.0999 194.056L19.3346 201.208L16.7428 208.444L14.3271 215.762L12.0901 223.16L10.0342 230.634L8.1621 238.182L6.4762 245.803L4.9791 253.492L3.6734 261.249L2.5616 269.069L1.6462 276.951L0.9298 284.892L0.4149 292.889L0.1042 300.941L0 309.043L0.1042 317.146L0.4149 325.197L0.9298 333.195L1.6462 341.136L2.5616 349.018L3.6734 356.838L4.9791 364.594L6.4762 372.284L8.1621 379.904L10.0342 387.453L12.0901 394.927L14.3271 402.324L16.7428 409.643L19.3346 416.879L22.0999 424.03L25.0364 431.095L28.1414 438.07L31.4114 444.953L34.8454 451.741L38.4404 458.432L42.1934 465.024L46.1024 471.513L50.1644 477.897L54.3774 484.174L58.7374 490.341L63.2444 496.395L67.8934 502.334L72.6834 508.156L77.6104 513.858L82.6744 519.437L87.8694 524.891L93.1964 530.217L98.6504 535.413L104.229 540.476L109.93 545.404L115.752 550.194L121.692 554.843L127.746 559.349L133.913 563.71L140.19 567.923L146.574 571.985L153.063 575.893L159.654 579.647L166.345 583.241L173.134 586.675L180.017 589.946L186.992 593.051L194.056 595.987L201.208 598.752L208.444 601.344L215.762 603.76L223.16 605.997L230.634 608.053L238.182 609.925L245.803 611.611L253.492 613.108L261.249 614.414L269.069 615.525L276.951 616.441L284.892 617.157L292.889 617.672L300.941 617.983L309.043 618.087L317.146 617.983L325.197 617.672L333.195 617.157L341.136 616.441L349.018 615.525L356.838 614.414L364.594 613.108L372.284 611.611L379.904 609.925L387.453 608.053L394.927 605.997L402.324 603.76L409.643 601.344L416.879 598.752L424.03 595.987L431.095 593.051L438.07 589.946L444.953 586.675L451.741 583.241L458.432 579.647L465.024 575.893L471.513 571.985L477.897 567.923L484.174 563.71L490.341 559.349L496.395 554.843L502.334 550.194L508.156 545.404L513.858 540.476L519.437 535.413L524.891 530.217L530.217 524.891L535.413 519.437L540.476 513.858L545.404 508.156L550.194 502.334L554.843 496.395L559.349 490.341L563.71 484.174L567.923 477.897L571.985 471.513L575.893 465.024L579.647 458.432L583.241 451.741L586.675 444.953L589.946 438.07L593.051 431.095L595.987 424.03L598.752 416.879L601.344 409.643L603.76 402.324L605.997 394.927L608.053 387.453L609.925 379.904L611.611 372.284L613.108 364.594L614.414 356.838L615.525 349.018L616.441 341.136L617.157 333.195L617.672 325.197L617.983 317.146L618.087 309.043M391.93 309.043L391.902 306.919L391.819 304.809L391.681 302.712L391.488 300.631L391.243 298.565L390.945 296.515L390.595 294.481L390.193 292.466L389.741 290.468L389.239 288.489L388.687 286.53L388.087 284.591L387.44 282.673L386.744 280.776L386.003 278.901L385.215 277.049L384.382 275.221L383.505 273.416L382.584 271.637L381.62 269.883L380.614 268.155L379.565 266.454L378.476 264.781L377.346 263.135L376.176 261.519L374.968 259.932L373.721 258.375L372.436 256.849L371.114 255.354L369.757 253.892L368.363 252.462L366.934 251.066L365.472 249.704L363.975 248.376L362.446 247.085L360.885 245.829L359.292 244.61L357.668 243.429L356.014 242.286L354.33 241.182L352.618 240.117L350.878 239.092L349.11 238.108L347.315 237.166L345.495 236.266L343.649 235.409L341.778 234.595L339.883 233.825L337.965 233.1L336.024 232.421L334.062 231.787L332.078 231.201L330.073 230.662L328.048 230.171L326.005 229.729L323.942 229.337L321.862 228.995L319.765 228.703L317.651 228.463L315.521 228.276L313.376 228.141L311.216 228.059L309.043 228.032L306.87 228.059L304.711 228.141L302.566 228.276L300.436 228.463L298.322 228.703L296.225 228.995L294.144 229.337L292.082 229.729L290.038 230.171L288.014 230.662L286.009 231.201L284.025 231.787L282.062 232.421L280.121 233.1L278.203 233.825L276.309 234.595L274.438 235.409L272.592 236.266L270.771 237.166L268.977 238.108L267.209 239.092L265.468 240.117L263.756 241.182L262.073 242.286L260.419 243.429L258.795 244.61L257.202 245.829L255.64 247.085L254.111 248.376L252.615 249.704L251.152 251.066L249.724 252.462L248.33 253.892L246.972 255.354L245.65 256.849L244.366 258.375L243.119 259.932L241.91 261.519L240.741 263.135L239.611 264.781L238.521 266.454L237.473 268.155L236.466 269.883L235.502 271.637L234.581 273.416L233.704 275.221L232.871 277.049L232.084 278.901L231.342 280.776L230.647 282.673L229.999 284.591L229.399 286.53L228.848 288.489L228.346 290.468L227.894 292.466L227.492 294.481L227.142 296.515L226.844 298.565L226.598 300.631L226.406 302.712L226.268 304.809L226.185 306.919L226.157 309.043L226.185 311.167L226.268 313.278L226.406 315.374L226.598 317.456L226.844 319.522L227.142 321.572L227.492 323.605L227.894 325.621L228.346 327.618L228.848 329.597L229.399 331.556L229.999 333.496L230.647 335.414L231.342 337.311L232.084 339.185L232.871 341.037L233.704 342.866L234.581 344.67L235.502 346.45L236.466 348.203L237.473 349.931L238.521 351.632L239.611 353.306L240.741 354.951L241.91 356.568L243.119 358.155L244.366 359.712L245.65 361.238L246.972 362.733L248.33 364.195L249.724 365.625L251.152 367.021L252.615 368.383L254.111 369.71L255.64 371.002L257.202 372.257L258.795 373.476L260.419 374.657L262.073 375.801L263.756 376.905L265.468 377.97L267.209 378.994L268.977 379.978L270.771 380.92L272.592 381.821L274.438 382.678L276.309 383.492L278.203 384.262L280.121 384.986L282.062 385.666L284.025 386.299L286.009 386.885L288.014 387.424L290.038 387.915L292.082 388.357L294.144 388.75L296.225 389.092L298.322 389.383L300.436 389.623L302.566 389.811L304.711 389.946L306.87 390.027L309.043 390.055L311.216 390.027L313.376 389.946L315.521 389.811L317.651 389.623L319.765 389.383L321.862 389.092L323.942 388.75L326.005 388.357L328.048 387.915L330.073 387.424L332.078 386.885L334.062 386.299L336.024 385.666L337.965 384.986L339.883 384.262L341.778 383.492L343.649 382.678L345.495 381.821L347.315 380.92L349.11 379.978L350.878 378.994L352.618 377.97L354.33 376.905L356.014 375.801L357.668 374.657L359.292 373.476L360.885 372.257L362.446 371.002L363.975 369.71L365.472 368.383L366.934 367.021L368.363 365.625L369.757 364.195L371.114 362.733L372.436 361.238L373.721 359.712L374.968 358.155L376.176 356.568L377.346 354.951L378.476 353.306L379.565 351.632L380.614 349.931L381.62 348.203L382.584 346.45L383.505 344.67L384.382 342.866L385.215 341.037L386.003 339.185L386.744 337.311L387.44 335.414L388.087 333.496L388.687 331.556L389.239 329.597L389.741 327.618L390.193 325.621L390.595 323.605L390.945 321.572L391.243 319.522L391.488 317.456L391.681 315.374L391.819 313.278L391.902 311.167L391.93 309.043" />
  <path
     id="shape03"
     transform="matrix(0.999999935186837 0 0 0.999999935186837 75.0107924407773 75.0107924407773)"
     fill="url(#gradient1)"
     fill-rule="evenodd"
     stroke="#000000"
     stroke-opacity="0"
     stroke-width="0"
     stroke-linecap="square"
     stroke-linejoin="bevel"
     d="M618.087 309.043L617.983 300.941L617.672 292.889L617.157 284.892L616.441 276.951L615.525 269.069L614.414 261.249L613.108 253.492L611.611 245.803L609.925 238.182L608.053 230.634L605.997 223.16L603.76 215.762L601.344 208.444L598.752 201.208L595.987 194.056L593.051 186.992L589.946 180.017L586.675 173.134L583.241 166.345L579.647 159.654L575.893 153.063L571.985 146.574L567.923 140.19L563.71 133.913L559.349 127.746L554.843 121.692L550.194 115.752L545.404 109.93L540.476 104.229L535.413 98.6504L530.217 93.1964L524.891 87.8694L519.437 82.6744L513.858 77.6104L508.156 72.6834L502.334 67.8934L496.395 63.2444L490.341 58.7374L484.174 54.3774L477.897 50.1644L471.513 46.1024L465.024 42.1934L458.432 38.4404L451.741 34.8454L444.953 31.4114L438.07 28.1414L431.095 25.0364L424.03 22.0999L416.879 19.3346L409.643 16.7428L402.324 14.3271L394.927 12.0901L387.453 10.0342L379.904 8.1621L372.284 6.4762L364.594 4.9791L356.838 3.6734L349.018 2.5616L341.136 1.6462L333.195 0.9298L325.197 0.4149L317.146 0.1042L309.043 0L300.941 0.1042L292.889 0.4149L284.892 0.9298L276.951 1.6462L269.069 2.5616L261.249 3.6734L253.492 4.9791L245.803 6.4762L238.182 8.1621L230.634 10.0342L223.16 12.0901L215.762 14.3271L208.444 16.7428L201.208 19.3346L194.056 22.0999L186.992 25.0364L180.017 28.1414L173.134 31.4114L166.345 34.8454L159.654 38.4404L153.063 42.1934L146.574 46.1024L140.19 50.1644L133.913 54.3774L127.746 58.7374L121.692 63.2444L115.752 67.8934L109.93 72.6834L104.229 77.6104L98.6504 82.6744L93.1964 87.8694L87.8694 93.1964L82.6744 98.6504L77.6104 104.229L72.6834 109.93L67.8934 115.752L63.2444 121.692L58.7374 127.746L54.3774 133.913L50.1644 140.19L46.1024 146.574L42.1934 153.063L38.4404 159.654L34.8454 166.345L31.4114 173.134L28.1414 180.017L25.0364 186.992L22.0999 194.056L19.3346 201.208L16.7428 208.444L14.3271 215.762L12.0901 223.16L10.0342 230.634L8.1621 238.182L6.4762 245.803L4.9791 253.492L3.6734 261.249L2.5616 269.069L1.6462 276.951L0.9298 284.892L0.4149 292.889L0.1042 300.941L0 309.043L0.1042 317.146L0.4149 325.197L0.9298 333.195L1.6462 341.136L2.5616 349.018L3.6734 356.838L4.9791 364.594L6.4762 372.284L8.1621 379.904L10.0342 387.453L12.0901 394.927L14.3271 402.324L16.7428 409.643L19.3346 416.879L22.0999 424.03L25.0364 431.095L28.1414 438.07L31.4114 444.953L34.8454 451.741L38.4404 458.432L42.1934 465.024L46.1024 471.513L50.1644 477.897L54.3774 484.174L58.7374 490.341L63.2444 496.395L67.8934 502.334L72.6834 508.156L77.6104 513.858L82.6744 519.437L87.8694 524.891L93.1964 530.217L98.6504 535.413L104.229 540.476L109.93 545.404L115.752 550.194L121.692 554.843L127.746 559.349L133.913 563.71L140.19 567.923L146.574 571.985L153.063 575.893L159.654 579.647L166.345 583.241L173.134 586.675L180.017 589.946L186.992 593.051L194.056 595.987L201.208 598.752L208.444 601.344L215.762 603.76L223.16 605.997L230.634 608.053L238.182 609.925L245.803 611.611L253.492 613.108L261.249 614.414L269.069 615.525L276.951 616.441L284.892 617.157L292.889 617.672L300.941 617.983L309.043 618.087L317.146 617.983L325.197 617.672L333.195 617.157L341.136 616.441L349.018 615.525L356.838 614.414L364.594 613.108L372.284 611.611L379.904 609.925L387.453 608.053L394.927 605.997L402.324 603.76L409.643 601.344L416.879 598.752L424.03 595.987L431.095 593.051L438.07 589.946L444.953 586.675L451.741 583.241L458.432 579.647L465.024 575.893L471.513 571.985L477.897 567.923L484.174 563.71L490.341 559.349L496.395 554.843L502.334 550.194L508.156 545.404L513.858 540.476L519.437 535.413L524.891 530.217L530.217 524.891L535.413 519.437L540.476 513.858L545.404 508.156L550.194 502.334L554.843 496.395L559.349 490.341L563.71 484.174L567.923 477.897L571.985 471.513L575.893 465.024L579.647 458.432L583.241 451.741L586.675 444.953L589.946 438.07L593.051 431.095L595.987 424.03L598.752 416.879L601.344 409.643L603.76 402.324L605.997 394.927L608.053 387.453L609.925 379.904L611.611 372.284L613.108 364.594L614.414 356.838L615.525 349.018L616.441 341.136L617.157 333.195L617.672 325.197L617.983 317.146L618.087 309.043M391.93 309.043L391.902 306.919L391.819 304.809L391.681 302.712L391.488 300.631L391.243 298.565L390.945 296.515L390.595 294.481L390.193 292.466L389.741 290.468L389.239 288.489L388.687 286.53L388.087 284.591L387.44 282.673L386.744 280.776L386.003 278.901L385.215 277.049L384.382 275.221L383.505 273.416L382.584 271.637L381.62 269.883L380.614 268.155L379.565 266.454L378.476 264.781L377.346 263.135L376.176 261.519L374.968 259.932L373.721 258.375L372.436 256.849L371.114 255.354L369.757 253.892L368.363 252.462L366.934 251.066L365.472 249.704L363.975 248.376L362.446 247.085L360.885 245.829L359.292 244.61L357.668 243.429L356.014 242.286L354.33 241.182L352.618 240.117L350.878 239.092L349.11 238.108L347.315 237.166L345.495 236.266L343.649 235.409L341.778 234.595L339.883 233.825L337.965 233.1L336.024 232.421L334.062 231.787L332.078 231.201L330.073 230.662L328.048 230.171L326.005 229.729L323.942 229.337L321.862 228.995L319.765 228.703L317.651 228.463L315.521 228.276L313.376 228.141L311.216 228.059L309.043 228.032L306.87 228.059L304.711 228.141L302.566 228.276L300.436 228.463L298.322 228.703L296.225 228.995L294.144 229.337L292.082 229.729L290.038 230.171L288.014 230.662L286.009 231.201L284.025 231.787L282.062 232.421L280.121 233.1L278.203 233.825L276.309 234.595L274.438 235.409L272.592 236.266L270.771 237.166L268.977 238.108L267.209 239.092L265.468 240.117L263.756 241.182L262.073 242.286L260.419 243.429L258.795 244.61L257.202 245.829L255.64 247.085L254.111 248.376L252.615 249.704L251.152 251.066L249.724 252.462L248.33 253.892L246.972 255.354L245.65 256.849L244.366 258.375L243.119 259.932L241.91 261.519L240.741 263.135L239.611 264.781L238.521 266.454L237.473 268.155L236.466 269.883L235.502 271.637L234.581 273.416L233.704 275.221L232.871 277.049L232.084 278.901L231.342 280.776L230.647 282.673L229.999 284.591L229.399 286.53L228.848 288.489L228.346 290.468L227.894 292.466L227.492 294.481L227.142 296.515L226.844 298.565L226.598 300.631L226.406 302.712L226.268 304.809L226.185 306.919L226.157 309.043L226.185 311.167L226.268 313.278L226.406 315.374L226.598 317.456L226.844 319.522L227.142 321.572L227.492 323.605L227.894 325.621L228.346 327.618L228.848 329.597L229.399 331.556L229.999 333.496L230.647 335.414L231.342 337.311L232.084 339.185L232.871 341.037L233.704 342.866L234.581 344.67L235.502 346.45L236.466 348.203L237.473 349.931L238.521 351.632L239.611 353.306L240.741 354.951L241.91 356.568L243.119 358.155L244.366 359.712L245.65 361.238L246.972 362.733L248.33 364.195L249.724 365.625L251.152 367.021L252.615 368.383L254.111 369.71L255.64 371.002L257.202 372.257L258.795 373.476L260.419 374.657L262.073 375.801L263.756 376.905L265.468 377.97L267.209 378.994L268.977 379.978L270.771 380.92L272.592 381.821L274.438 382.678L276.309 383.492L278.203 384.262L280.121 384.986L282.062 385.666L284.025 386.299L286.009 386.885L288.014 387.424L290.038 387.915L292.082 388.357L294.144 388.75L296.225 389.092L298.322 389.383L300.436 389.623L302.566 389.811L304.711 389.946L306.87 390.027L309.043 390.055L311.216 390.027L313.376 389.946L315.521 389.811L317.651 389.623L319.765 389.383L321.862 389.092L323.942 388.75L326.005 388.357L328.048 387.915L330.073 387.424L332.078 386.885L334.062 386.299L336.024 385.666L337.965 384.986L339.883 384.262L341.778 383.492L343.649 382.678L345.495 381.821L347.315 380.92L349.11 379.978L350.878 378.994L352.618 377.97L354.33 376.905L356.014 375.801L357.668 374.657L359.292 373.476L360.885 372.257L362.446 371.002L363.975 369.71L365.472 368.383L366.934 367.021L368.363 365.625L369.757 364.195L371.114 362.733L372.436 361.238L373.721 359.712L374.968 358.155L376.176 356.568L377.346 354.951L378.476 353.306L379.565 351.632L380.614 349.931L381.62 348.203L382.584 346.45L383.505 344.67L384.382 342.866L385.215 341.037L386.003 339.185L386.744 337.311L387.44 335.414L388.087 333.496L388.687 331.556L389.239 329.597L389.741 327.618L390.193 325.621L390.595 323.605L390.945 321.572L391.243 319.522L391.488 317.456L391.681 315.374L391.819 313.278L391.902 311.167L391.93 309.043" />
  <path
     id="shape04"
     transform="matrix(0.999999935186837 0 0 0.999999935186837 75.0107924407773 75.0107924407773)"
     fill="url(#gradient2)"
     fill-rule="evenodd"
     stroke="#000000"
     stroke-opacity="0"
     stroke-width="0"
     stroke-linecap="square"
     stroke-linejoin="bevel"
     d="M618.087 309.043L617.983 300.941L617.672 292.889L617.157 284.892L616.441 276.951L615.525 269.069L614.414 261.249L613.108 253.492L611.611 245.803L609.925 238.182L608.053 230.634L605.997 223.16L603.76 215.762L601.344 208.444L598.752 201.208L595.987 194.056L593.051 186.992L589.946 180.017L586.675 173.134L583.241 166.345L579.647 159.654L575.893 153.063L571.985 146.574L567.923 140.19L563.71 133.913L559.349 127.746L554.843 121.692L550.194 115.752L545.404 109.93L540.476 104.229L535.413 98.6504L530.217 93.1964L524.891 87.8694L519.437 82.6744L513.858 77.6104L508.156 72.6834L502.334 67.8934L496.395 63.2444L490.341 58.7374L484.174 54.3774L477.897 50.1644L471.513 46.1024L465.024 42.1934L458.432 38.4404L451.741 34.8454L444.953 31.4114L438.07 28.1414L431.095 25.0364L424.03 22.0999L416.879 19.3346L409.643 16.7428L402.324 14.3271L394.927 12.0901L387.453 10.0342L379.904 8.1621L372.284 6.4762L364.594 4.9791L356.838 3.6734L349.018 2.5616L341.136 1.6462L333.195 0.9298L325.197 0.4149L317.146 0.1042L309.043 0L300.941 0.1042L292.889 0.4149L284.892 0.9298L276.951 1.6462L269.069 2.5616L261.249 3.6734L253.492 4.9791L245.803 6.4762L238.182 8.1621L230.634 10.0342L223.16 12.0901L215.762 14.3271L208.444 16.7428L201.208 19.3346L194.056 22.0999L186.992 25.0364L180.017 28.1414L173.134 31.4114L166.345 34.8454L159.654 38.4404L153.063 42.1934L146.574 46.1024L140.19 50.1644L133.913 54.3774L127.746 58.7374L121.692 63.2444L115.752 67.8934L109.93 72.6834L104.229 77.6104L98.6504 82.6744L93.1964 87.8694L87.8694 93.1964L82.6744 98.6504L77.6104 104.229L72.6834 109.93L67.8934 115.752L63.2444 121.692L58.7374 127.746L54.3774 133.913L50.1644 140.19L46.1024 146.574L42.1934 153.063L38.4404 159.654L34.8454 166.345L31.4114 173.134L28.1414 180.017L25.0364 186.992L22.0999 194.056L19.3346 201.208L16.7428 208.444L14.3271 215.762L12.0901 223.16L10.0342 230.634L8.1621 238.182L6.4762 245.803L4.9791 253.492L3.6734 261.249L2.5616 269.069L1.6462 276.951L0.9298 284.892L0.4149 292.889L0.1042 300.941L0 309.043L0.1042 317.146L0.4149 325.197L0.9298 333.195L1.6462 341.136L2.5616 349.018L3.6734 356.838L4.9791 364.594L6.4762 372.284L8.1621 379.904L10.0342 387.453L12.0901 394.927L14.3271 402.324L16.7428 409.643L19.3346 416.879L22.0999 424.03L25.0364 431.095L28.1414 438.07L31.4114 444.953L34.8454 451.741L38.4404 458.432L42.1934 465.024L46.1024 471.513L50.1644 477.897L54.3774 484.174L58.7374 490.341L63.2444 496.395L67.8934 502.334L72.6834 508.156L77.6104 513.858L82.6744 519.437L87.8694 524.891L93.1964 530.217L98.6504 535.413L104.229 540.476L109.93 545.404L115.752 550.194L121.692 554.843L127.746 559.349L133.913 563.71L140.19 567.923L146.574 571.985L153.063 575.893L159.654 579.647L166.345 583.241L173.134 586.675L180.017 589.946L186.992 593.051L194.056 595.987L201.208 598.752L208.444 601.344L215.762 603.76L223.16 605.997L230.634 608.053L238.182 609.925L245.803 611.611L253.492 613.108L261.249 614.414L269.069 615.525L276.951 616.441L284.892 617.157L292.889 617.672L300.941 617.983L309.043 618.087L317.146 617.983L325.197 617.672L333.195 617.157L341.136 616.441L349.018 615.525L356.838 614.414L364.594 613.108L372.284 611.611L379.904 609.925L387.453 608.053L394.927 605.997L402.324 603.76L409.643 601.344L416.879 598.752L424.03 595.987L431.095 593.051L438.07 589.946L444.953 586.675L451.741 583.241L458.432 579.647L465.024 575.893L471.513 571.985L477.897 567.923L484.174 563.71L490.341 559.349L496.395 554.843L502.334 550.194L508.156 545.404L513.858 540.476L519.437 535.413L524.891 530.217L530.217 524.891L535.413 519.437L540.476 513.858L545.404 508.156L550.194 502.334L554.843 496.395L559.349 490.341L563.71 484.174L567.923 477.897L571.985 471.513L575.893 465.024L579.647 458.432L583.241 451.741L586.675 444.953L589.946 438.07L593.051 431.095L595.987 424.03L598.752 416.879L601.344 409.643L603.76 402.324L605.997 394.927L608.053 387.453L609.925 379.904L611.611 372.284L613.108 364.594L614.414 356.838L615.525 349.018L616.441 341.136L617.157 333.195L617.672 325.197L617.983 317.146L618.087 309.043M391.93 309.043L391.902 306.919L391.819 304.809L391.681 302.712L391.488 300.631L391.243 298.565L390.945 296.515L390.595 294.481L390.193 292.466L389.741 290.468L389.239 288.489L388.687 286.53L388.087 284.591L387.44 282.673L386.744 280.776L386.003 278.901L385.215 277.049L384.382 275.221L383.505 273.416L382.584 271.637L381.62 269.883L380.614 268.155L379.565 266.454L378.476 264.781L377.346 263.135L376.176 261.519L374.968 259.932L373.721 258.375L372.436 256.849L371.114 255.354L369.757 253.892L368.363 252.462L366.934 251.066L365.472 249.704L363.975 248.376L362.446 247.085L360.885 245.829L359.292 244.61L357.668 243.429L356.014 242.286L354.33 241.182L352.618 240.117L350.878 239.092L349.11 238.108L347.315 237.166L345.495 236.266L343.649 235.409L341.778 234.595L339.883 233.825L337.965 233.1L336.024 232.421L334.062 231.787L332.078 231.201L330.073 230.662L328.048 230.171L326.005 229.729L323.942 229.337L321.862 228.995L319.765 228.703L317.651 228.463L315.521 228.276L313.376 228.141L311.216 228.059L309.043 228.032L306.87 228.059L304.711 228.141L302.566 228.276L300.436 228.463L298.322 228.703L296.225 228.995L294.144 229.337L292.082 229.729L290.038 230.171L288.014 230.662L286.009 231.201L284.025 231.787L282.062 232.421L280.121 233.1L278.203 233.825L276.309 234.595L274.438 235.409L272.592 236.266L270.771 237.166L268.977 238.108L267.209 239.092L265.468 240.117L263.756 241.182L262.073 242.286L260.419 243.429L258.795 244.61L257.202 245.829L255.64 247.085L254.111 248.376L252.615 249.704L251.152 251.066L249.724 252.462L248.33 253.892L246.972 255.354L245.65 256.849L244.366 258.375L243.119 259.932L241.91 261.519L240.741 263.135L239.611 264.781L238.521 266.454L237.473 268.155L236.466 269.883L235.502 271.637L234.581 273.416L233.704 275.221L232.871 277.049L232.084 278.901L231.342 280.776L230.647 282.673L229.999 284.591L229.399 286.53L228.848 288.489L228.346 290.468L227.894 292.466L227.492 294.481L227.142 296.515L226.844 298.565L226.598 300.631L226.406 302.712L226.268 304.809L226.185 306.919L226.157 309.043L226.185 311.167L226.268 313.278L226.406 315.374L226.598 317.456L226.844 319.522L227.142 321.572L227.492 323.605L227.894 325.621L228.346 327.618L228.848 329.597L229.399 331.556L229.999 333.496L230.647 335.414L231.342 337.311L232.084 339.185L232.871 341.037L233.704 342.866L234.581 344.67L235.502 346.45L236.466 348.203L237.473 349.931L238.521 351.632L239.611 353.306L240.741 354.951L241.91 356.568L243.119 358.155L244.366 359.712L245.65 361.238L246.972 362.733L248.33 364.195L249.724 365.625L251.152 367.021L252.615 368.383L254.111 369.71L255.64 371.002L257.202 372.257L258.795 373.476L260.419 374.657L262.073 375.801L263.756 376.905L265.468 377.97L267.209 378.994L268.977 379.978L270.771 380.92L272.592 381.821L274.438 382.678L276.309 383.492L278.203 384.262L280.121 384.986L282.062 385.666L284.025 386.299L286.009 386.885L288.014 387.424L290.038 387.915L292.082 388.357L294.144 388.75L296.225 389.092L298.322 389.383L300.436 389.623L302.566 389.811L304.711 389.946L306.87 390.027L309.043 390.055L311.216 390.027L313.376 389.946L315.521 389.811L317.651 389.623L319.765 389.383L321.862 389.092L323.942 388.75L326.005 388.357L328.048 387.915L330.073 387.424L332.078 386.885L334.062 386.299L336.024 385.666L337.965 384.986L339.883 384.262L341.778 383.492L343.649 382.678L345.495 381.821L347.315 380.92L349.11 379.978L350.878 378.994L352.618 377.97L354.33 376.905L356.014 375.801L357.668 374.657L359.292 373.476L360.885 372.257L362.446 371.002L363.975 369.71L365.472 368.383L366.934 367.021L368.363 365.625L369.757 364.195L371.114 362.733L372.436 361.238L373.721 359.712L374.968 358.155L376.176 356.568L377.346 354.951L378.476 353.306L379.565 351.632L380.614 349.931L381.62 348.203L382.584 346.45L383.505 344.67L384.382 342.866L385.215 341.037L386.003 339.185L386.744 337.311L387.44 335.414L388.087 333.496L388.687 331.556L389.239 329.597L389.741 327.618L390.193 325.621L390.595 323.605L390.945 321.572L391.243 319.522L391.488 317.456L391.681 315.374L391.819 313.278L391.902 311.167L391.93 309.043" />
  <rect
     id="shape05"
     transform="matrix(1.00000000419494 0 0 1.00000000419494 15.0021335871269 96.0135685054437)"
     fill="#a5a5a5"
     fill-rule="evenodd"
     stroke="#404040"
     stroke-width="30.0042400320852"
     stroke-linecap="square"
     stroke-linejoin="bevel"
     width="738.104304789296"
     height="288.040704308018"
     rx="57.6643988116638"
     ry="44.5710954441807" />
  <rect
     id="shape06"
     transform="matrix(0.999999967541794 0 0 0.999999967541794 15.0021472842924 15.0021188620112)"
     fill="#e5e5e5"
     stroke="#404040"
     stroke-width="30.0042400320852"
     stroke-linecap="square"
     stroke-linejoin="bevel"
     width="738.104304789296"
     height="288.040704308018"
     rx="57.6643988116638"
     ry="44.5710954441808" />
  <ellipse
     id="shape07"
     transform="matrix(1.00000001693073 0 0 1.00000001693073 301.167564421042 303.04282947067)"
     rx="82.8867130886354"
     ry="81.0114480866301"
     cx="82.8867130886354"
     cy="81.0114480866301"
     fill="none"
     stroke="#404040"
     stroke-width="30.0042400320852"
     stroke-linecap="square"
     stroke-linejoin="bevel" />
  <circle
     id="shape08"
     transform="matrix(1.00000003612173 0 0 1.00000003612173 75.0106027897254 75.0106027897256)"
     r="309.043672330478"
     cx="309.043672330478"
     cy="309.043672330478"
     fill="none"
     stroke="#404040"
     stroke-width="30.0042400320852"
     stroke-linecap="square"
     stroke-linejoin="bevel" />
  <g
     aria-label="01"
     transform="translate(219.66364,282.53667)"
     id="shape09"
     style="font-weight:700;font-size:256px;font-family:'Nimbus Mono PS';letter-spacing:0;word-spacing:0;text-anchor:middle;fill:#404040;stroke:#000000;stroke-width:0;stroke-linecap:square;stroke-linejoin:bevel;stroke-opacity:0">
    <path
       d="m 144.16702,-88.576 c 0,-22.528 -7.424,-42.752 -20.224,-55.808 -9.216,-8.96 -21.504,-13.568 -36.352004,-13.568 -14.848,0 -27.136,4.608 -36.352,13.568 -12.8,13.056 -20.224,33.28 -20.224,55.808 v 23.04 c 0,22.272 7.424,42.752 20.224,55.552 9.216,8.96 21.504,13.568 36.352,13.568 14.848004,0 27.136004,-4.608 36.352004,-13.568 12.8,-12.8 20.224,-33.28 20.224,-55.552 z m -85.504004,-1.792 c 0,-25.088 11.264,-41.216 28.928,-41.216 17.664004,0 28.928004,16.128 28.928004,41.216 V -64 c 0,24.832 -11.52,41.216 -28.928004,41.216 -17.408,0 -28.928,-16.384 -28.928,-41.216 z"
       id="path1120" />
    <path
       d="m 255.01462,-157.952 -55.552,13.568 c -10.752,2.56 -14.336,6.144 -14.336,13.568 0,7.68 5.632,13.824 12.8,13.824 2.56,0 3.328,-0.256 8.448,-1.536 l 20.992,-5.376 v 97.536 h -24.832 c -6.656,0 -8.704,0.256 -11.264,1.792 -4.096,2.56 -6.656,6.912 -6.656,11.264 0,4.096 2.304,8.448 5.632,10.752 2.56,1.792 6.4,2.56 12.288,2.56 h 77.31201 c 11.77599,0 17.91999,-4.608 17.91999,-13.312 0,-4.096 -2.048,-7.936 -5.63199,-10.496 -2.81601,-2.048 -5.37601,-2.56 -12.288,-2.56 h -24.83201 z"
       id="path1122" />
  </g>
</svg>
